<svg xmlns="http://www.w3.org/2000/svg" width="24" height="24" viewBox="0 0 24 24">
  <g id="Group_758" data-name="Group 758" transform="translate(-153 -580)">
    <g id="Ellipse_18" data-name="Ellipse 18" transform="translate(153 580)" fill="#fff" stroke="#707070" stroke-width="1">
      <circle cx="12" cy="12" r="12" stroke="none"/>
      <circle cx="12" cy="12" r="11.5" fill="none"/>
    </g>
    <path id="Icon_simple-aboutme" data-name="Icon simple-aboutme" d="M11.155,13.253c-.785,0-1.218,1.251-1.31,2.613h2.631c-.072-1.3-.5-2.613-1.321-2.613m-1.29,4.466c.134,1.427.681,2.433,1.445,2.433a1.674,1.674,0,0,0,1.362-1.117l.671,1.675c-.608,1.386-1.516,1.764-2.135,1.764-1.507,0-2.683-2.344-2.683-5.693,0-3.126,1.083-5.693,2.611-5.693,1.475,0,2.569,2.455,2.569,5.693v.938H9.865ZM6.16,22.448V15.419c0-1.2-.247-1.9-.762-1.9-.465,0-.774.715-.981,1.231v7.7H3.075V15.419c0-1.2-.236-1.9-.752-1.9-.464,0-.785.715-.981,1.231v7.7H0V11.229H1.342V12.65c.385-.987.951-1.558,1.548-1.56.711,0,1.2.649,1.413,1.964.3-.938.856-1.964,1.662-1.964.97,0,1.537,1.251,1.537,3.662v7.7H6.158Z" transform="translate(158.148 575.219)" fill="#b6b7b7"/>
  </g>
</svg>
