<svg id="Business_error_comment_review_account_profile_user_list_problem" data-name="Business, error | comment, review, account, profile, user, list, problem" xmlns="http://www.w3.org/2000/svg" xmlns:xlink="http://www.w3.org/1999/xlink" width="424" height="410" viewBox="0 0 424 410">
  <defs>
    <clipPath id="clip-path">
      <path id="Path" d="M0,0H268.389V326.467H0Z" fill="none"/>
    </clipPath>
  </defs>
  <g id="Group" transform="translate(25.016 26.553)">
    <g id="Group-2" data-name="Group" transform="translate(0 0)">
      <g id="Group-3" data-name="Group" transform="translate(11.921 7.705)">
        <path id="Path-2" data-name="Path" d="M16.816,38.517c-1.729-4.637-3.652-9.241-5.759-13.717C6.86,15.891,5.9,7.449,0,0" transform="translate(262.916 29.233)" fill="none" stroke="#ccdde2" stroke-miterlimit="10" stroke-width="4"/>
        <path id="Path-3" data-name="Path" d="M89.7,20.694C84.625,15.7,79.88,10.34,71.258,6.334,53.037-2.1,29.739-2.96,0,8.974" transform="translate(159.552)" fill="none" stroke="#ccdde2" stroke-miterlimit="10" stroke-width="4"/>
        <path id="Path-4" data-name="Path" d="M34.526,129.464C5.709,90.076-3.611,45.544,1.205,0" transform="translate(0 218.263)" fill="none" stroke="#ccdde2" stroke-miterlimit="10" stroke-width="4"/>
        <path id="Path-5" data-name="Path" d="M31.957,0V.486c-.283,8.84,8.165,45.484,32.124,57.124s41.041,62.733-12.977,82.779S.028,193.9.028,193.9" transform="translate(263.989 153.823)" fill="none" stroke="#ccdde2" stroke-miterlimit="10" stroke-width="4"/>
      </g>
      <path id="Path-6" data-name="Path" d="M171.468,54.512V11.222A11.447,11.447,0,0,0,159.863,0H11.605A11.447,11.447,0,0,0,0,11.222V214.774a11.416,11.416,0,0,0,11.605,11.2H159.863a11.3,11.3,0,0,0,4.2-.779" transform="translate(0 0)" fill="none" stroke="#000" stroke-linecap="round" stroke-linejoin="round" stroke-miterlimit="10" stroke-width="4"/>
    </g>
    <rect id="Rectangle" width="161.056" height="212.275" rx="24.95" transform="translate(5.206 6.859)" fill="#3fbdf1"/>
    <rect id="Rectangle-2" data-name="Rectangle" width="143.853" height="39.746" rx="12.48" transform="translate(14.689 23.284)" fill="#3fbdf1"/>
    <g id="Group-4" data-name="Group" transform="translate(63.678 31.802)">
      <ellipse id="Oval" cx="4.251" cy="4.11" rx="4.251" ry="4.11" transform="translate(17.806 0)" fill="#d7e8f0"/>
      <path id="Path-7" data-name="Path" d="M0,11.487A11.689,11.689,0,0,1,11.88,0a11.689,11.689,0,0,1,11.88,11.487Z" transform="translate(10.177 11.222)" fill="#d7e8f0"/>
      <path id="Shape" d="M6.71,37.814A21.619,21.619,0,0,1,1.747,13.669,22.929,22.929,0,0,1,22.921,0c12.642.007,22.888,9.915,22.9,22.139A22.157,22.157,0,0,1,31.68,42.614,23.548,23.548,0,0,1,22.913,44.3,23.311,23.311,0,0,1,6.71,37.814Z" transform="translate(0 73.815)" fill="#d7e8f0"/>
    </g>
    <g id="Group-5" data-name="Group" transform="translate(29.074 80.774)">
      <path id="Path-8" data-name="Path" d="M0,.49H111.854" transform="translate(0 -0.49)" fill="none" stroke="#fff" stroke-miterlimit="10" stroke-width="7.24"/>
      <path id="Path-9" data-name="Path" d="M0,.49H111.854" transform="translate(0 10.154)" fill="none" stroke="#fff" stroke-miterlimit="10" stroke-width="7.24"/>
      <path id="Path-10" data-name="Path" d="M0,.49H111.854" transform="translate(0 78.713)" fill="none" stroke="#fff" stroke-miterlimit="10" stroke-width="7.24"/>
      <path id="Path-11" data-name="Path" d="M0,.49H59.889" transform="translate(25.982 88.782)" fill="none" stroke="#fff" stroke-miterlimit="10" stroke-width="7.24"/>
    </g>
    <path id="Path-12" data-name="Path" d="M0,204.375S19.9,127.9,81.895,109.217l25.2-5.814s3.985-17.209,2.518-19.017-4.479-5.513-10-4.709-19.783,1.061-23.435-15.8S86.021,6.926,121.1.931,156.988,19.84,156.988,19.84L131.225,77.567l4,46.569.5,69.371Z" transform="translate(40.958 31.61)" fill="#fff"/>
    <g id="Clipped" transform="translate(25.392 30.428)">
      <path id="Path-13" data-name="Path" d="M0,0H268.389V326.467H0Z" transform="translate(0)" fill="none"/>
      <g id="Clipped-2" data-name="Clipped" transform="translate(0)" clip-path="url(#clip-path)">
        <g id="Group-6" data-name="Group" transform="translate(0.004 1.44)">
          <g id="Group-7" data-name="Group" transform="translate(43.854 2.088)">
            <path id="Path-14" data-name="Path" d="M182.243,31.079c-.416.117-5.718,1.607-7.8,5.159A4.918,4.918,0,0,0,170,33.522H107.736a4.859,4.859,0,0,0-4.774,3.668L90.7,88.03c-.831-.157-1.662-.253-2.526-.333L59.237,80.714a5.179,5.179,0,0,0-6.1,3.162,4.577,4.577,0,0,0-.283,1.631,5.059,5.059,0,0,0,4.8,4.974l13.683.852c-13.18,6-29.215,17.426-42.6,27.925-13.022-19.716-.8-39.429,8.389-50.044C35.938,57.514,29.938,30.348,0,31.087,10.313,18.3,23.174,7.337,39.109,0,93.691,58.5,156.136,10.672,157.461,9.643a108.7,108.7,0,0,1,24.782,21.444" transform="translate(3.686 111.869)" fill="#2e2e2e"/>
            <path id="Path-15" data-name="Path" d="M180.257,74.357V84.466H0V70.146a47.057,47.057,0,0,0,21.129-4.135,69.445,69.445,0,0,0,22.135-16.2c6.461-6.871,10.01-16.4,14.128-24.683C63.575,12.653,71.764,3.765,84.762,0l-.831,3.455a4.63,4.63,0,0,0,.936,4.024,4.975,4.975,0,0,0,3.838,1.8h62.577c-1.247,10.447-6.5,67.5,28.974,65.092" transform="translate(0 236.415)" fill="#2e2e2e"/>
            <path id="Path-16" data-name="Path" d="M95.429,44.9a64.765,64.765,0,0,1-2.169,16.02A13.558,13.558,0,0,1,82.406,70.8a11.764,11.764,0,0,0-4.155-8.84,56.241,56.241,0,0,0-.1-9.274c-.162-2.037-.416-3.938-.681-5.645a20.36,20.36,0,0,0-.686-2.873,10.618,10.618,0,0,0-2.909-2.134c-3.852-2.1-11.78-4.327-26.469-1.049a17.864,17.864,0,0,0-6.623,2.969.5.5,0,0,0-.116.1A20.135,20.135,0,0,1,35.914,47.5a4.085,4.085,0,0,1-5.277-1.065c-.042-.04-.062-.076-.1-.117-.831-1.049-1.625-2.411-3.091-2.68-3.091-.563-4.6,2.411-4.986,4.91a10.036,10.036,0,0,0,1.388,6.288,16.252,16.252,0,0,0,3.324,4.231,8.319,8.319,0,0,1,.943,1.045,2.16,2.16,0,0,0-.378.1,7.026,7.026,0,0,0-.831.329,11.437,11.437,0,0,0-6.461,10.479c0,.149-6.27.06-7.064,0-3.058-.273-6.071-1.125-8.223-3.355C-.951,61.339-.922,51.949,1.588,44.6a94.464,94.464,0,0,1,9.366-20.05C19.542,10.981,32.868.968,49.738.068a57.783,57.783,0,0,1,12.1.683,47,47,0,0,1,5.6,1.205c17.2,7.257,28.114,23.706,28.014,42.94" transform="translate(55.883)" fill="#2e2e2e"/>
          </g>
          <path id="Path-17" data-name="Path" d="M15.149,12.211c-2.032,5.043-6.869,7.928-10.8,6.429S-1.136,11.869.892,6.826,7.761-1.105,11.7.4s5.485,6.774,3.453,11.817" transform="translate(170.057 189.507)" fill="#3fbdf1"/>
          <g id="Group-8" data-name="Group" transform="translate(70.2 107.138)">
            <path id="Path-18" data-name="Path" d="M33.454,139.613s-11.036,74.393,33.109,66.148C110.466,197.553,127.083,24.839,0,0" transform="translate(92.006 0)" fill="none" stroke="#000" stroke-miterlimit="10" stroke-width="7.24"/>
            <path id="Path-19" data-name="Path" d="M22.1,0S-13.515,29.046,5.678,58.1" transform="translate(0 67.993)" fill="none" stroke="#000" stroke-miterlimit="10" stroke-width="7.24"/>
            <path id="Path-20" data-name="Path" d="M21.922,7.768a8.021,8.021,0,0,1-2.078-.514q-1.13-.289-2.24-.619A41.265,41.265,0,0,1,5.526.72,4.091,4.091,0,0,0,2.2.153,3.27,3.27,0,0,0,.041,2.713c-.312,2.073,1.2,4.1,2.85,5.432a24.92,24.92,0,0,0,6.362,3.99,45.507,45.507,0,0,0,7.064,2.1c1.093.245,2.2.4,3.287.671" transform="translate(104.34 111.181)" fill="none" stroke="#000" stroke-miterlimit="10" stroke-width="7.24"/>
            <path id="Path-21" data-name="Path" d="M35.286,0a24.482,24.482,0,0,1,.553,7c-.187,1.969-.918,4.267-3.183,4.745a4.111,4.111,0,0,1-1.321.117c-8.526-.486-15.553-3.335-23.577-8.944s-10.849,7.309-3.519,9.6" transform="translate(104.646 98.823)" fill="none" stroke="#000" stroke-miterlimit="10" stroke-width="7.24"/>
            <path id="Path-22" data-name="Path" d="M3.91,1.611a6.569,6.569,0,0,1-.561-.5C-.644-2.929-1.367,5.183,2.826,7.57l.54.309c.283.117.586.253.885.4.141.036.3.1.445.137a86.752,86.752,0,0,0,11.8,3.685C12.561,10.86,8.643,9.639,4.7,8.418c-.341-.137-.665-.273-1.006-.43a1.789,1.789,0,0,0-.324-.1.457.457,0,0,0-.44.04.594.594,0,0,0-.2.289,5.42,5.42,0,0,0,.7,4.717,9.8,9.8,0,0,0,3.81,3.279,42.371,42.371,0,0,0,12.927,4.151,9.3,9.3,0,0,0,2.493.157" transform="translate(105.282 119.274)" fill="none" stroke="#000" stroke-miterlimit="10" stroke-width="7.24"/>
            <path id="Path-23" data-name="Path" d="M22.23,56.445S8.689,34.129,7.18,14.726C6.258,2.716,2.609.173,0,0" transform="translate(141.341 92.559)" fill="none" stroke="#000" stroke-miterlimit="10" stroke-width="7.24"/>
            <path id="Path-24" data-name="Path" d="M79.556,70.223,82.19,58.486l1.4-6.268L94.008,5.746a4.628,4.628,0,0,0-.978-3.981A4.973,4.973,0,0,0,89.212,0H26.943a4.863,4.863,0,0,0-4.774,3.668L9.906,54.512.956,91.61.125,95.086a4.634,4.634,0,0,0,.941,4.021A4.979,4.979,0,0,0,4.9,100.9H67.477" transform="translate(57.746 40.337)" fill="none" stroke="#000" stroke-miterlimit="10" stroke-width="7.24"/>
          </g>
          <path id="Path-25" data-name="Path" d="M0,15.469S3.3,1.956,21.9.164,45.171,11.817,45.171,11.817l-.586,1.354S20.124,3.68,6.615,17.225c0,0-4.866,2.134-6.615-1.748" transform="translate(130.299 31.717)" fill="#3fbdf1"/>
          <g id="Group-9" data-name="Group" transform="translate(0 113.957)">
            <path id="Path-26" data-name="Path" d="M35.3,7.137,6.36.146A5.234,5.234,0,0,0,1.232,1.734,4.83,4.83,0,0,0,.4,6.878,5.12,5.12,0,0,0,4.781,9.905l13.683.872" transform="translate(100.017 80.56)" fill="none" stroke="#000" stroke-miterlimit="10" stroke-width="7.24"/>
            <path id="Path-27" data-name="Path" d="M118.369,9.623S55.156,59.141,0,0" transform="translate(86.258 0)" fill="none" stroke="#000" stroke-miterlimit="10" stroke-width="7.24"/>
            <path id="Path-28" data-name="Path" d="M37.143,38.142C35.959,26.442,29.963-.744,0,.016" transform="translate(47.132 31.064)" fill="none" stroke="#000" stroke-miterlimit="10" stroke-width="7.24"/>
            <path id="Path-29" data-name="Path" d="M7.812,0S2.165,1.5,0,5.175" transform="translate(221.593 31.071)" fill="none" stroke="#000" stroke-miterlimit="10" stroke-width="7.24"/>
            <path id="Path-30" data-name="Path" d="M0,.49H268.389" transform="translate(0 209.125)" fill="none" stroke="#000" stroke-miterlimit="10" stroke-width="7.24"/>
          </g>
          <path id="Path-31" data-name="Path" d="M7.862,0a11.82,11.82,0,0,1,4.155,9.217c0,6.308-4.533,11.411-10.135,11.411A8.822,8.822,0,0,1,0,20.415C6.524,15.594,7.845,0,7.845,0" transform="translate(170.126 64.061)" fill="#3fbdf1"/>
          <g id="Group-10" data-name="Group" transform="translate(92.923 0)">
            <path id="Path-32" data-name="Path" d="M11.564,57.809a25.577,25.577,0,0,0,20.36.759c18.358-7.413,17.655-29.263,15.748-41.14a21.863,21.863,0,0,0-.648-2.853A20.2,20.2,0,0,0,32.178.681,29.433,29.433,0,0,0,0,15.66" transform="translate(36.598 31.714)" fill="none" stroke="#000" stroke-miterlimit="10" stroke-width="7.24"/>
            <path id="Path-33" data-name="Path" d="M36.279,5.055s-.058-.08-.179-.213C34.854,3.484,27.636-3,6.744,1.66A17.813,17.813,0,0,0,.125,4.629a.521.521,0,0,0-.125.1" transform="translate(47.518 41.448)" fill="none" stroke="#000" stroke-miterlimit="10" stroke-width="7.24"/>
            <path id="Path-34" data-name="Path" d="M28.109,79.418H17.775c-7.459,0-13.371-6.606-15.944-12.805C-1.783,57.894.531,48.97,3.785,40.5a85.123,85.123,0,0,1,10.75-20.15C24.739,6.544,40.147-1.276,57.856.171q2.356.193,4.691.563c23.78,3.729,39.815,22.955,39.695,46.239A64.789,64.789,0,0,1,100.073,63a13.6,13.6,0,0,1-10.858,9.88" transform="translate(0 0)" fill="none" stroke="#000" stroke-miterlimit="10" stroke-width="7.24"/>
            <path id="Path-35" data-name="Path" d="M5.742,16.543A8.674,8.674,0,0,0,4.8,15.494a16.168,16.168,0,0,1-3.324-4.227A10.036,10.036,0,0,1,.087,4.979C.469,2.5,1.973-.494,5.073.069,6.54.342,7.321,1.7,8.165,2.749,11.372,6.767,15.789,2.729,18.5.3" transform="translate(29.194 45.658)" fill="none" stroke="#000" stroke-miterlimit="10" stroke-width="7.24"/>
            <path id="Path-36" data-name="Path" d="M7.862,0a11.82,11.82,0,0,1,4.155,9.217c0,6.308-4.533,11.411-10.135,11.411A8.822,8.822,0,0,1,0,20.415" transform="translate(77.203 64.061)" fill="none" stroke="#000" stroke-miterlimit="10" stroke-width="7.24"/>
            <path id="Path-37" data-name="Path" d="M0,18.776c2.269,1.475,7.749,2.684,6.648-1.688C5.327,11.909,3.549.844,14.439,0c0,0,4.8.2,7.164,1.772" transform="translate(63.379 53.028)" fill="none" stroke="#000" stroke-miterlimit="10" stroke-width="7.24"/>
            <path id="Path-38" data-name="Path" d="M8.2,2.793S2.718,5.605,0,0" transform="translate(59.277 77.67)" fill="none" stroke="#000" stroke-miterlimit="10" stroke-width="7.24"/>
          </g>
          <path id="Path-39" data-name="Path" d="M.037,3C-.175,4.781.544,6.32,1.645,6.445s2.165-1.205,2.381-3S3.515.133,2.418.008.249,1.213.037,3" transform="translate(149.243 57.592)"/>
          <path id="Path-40" data-name="Path" d="M.037,3C-.175,4.777.544,6.32,1.645,6.444s2.165-1.205,2.377-3S3.515.128,2.418.008.249,1.213.037,3" transform="translate(167.102 58.641)"/>
          <g id="Group-11" data-name="Group" transform="translate(9.613 51.862)">
            <path id="Path-41" data-name="Path" d="M10.966,2.3S7.608-2.7,0,2.046" transform="translate(135.723 0)" fill="none" stroke="#000" stroke-miterlimit="10" stroke-width="7.24"/>
            <path id="Path-42" data-name="Path" d="M.49,0V27.772" transform="translate(152.099 38.092)" fill="none" stroke="#000" stroke-miterlimit="10" stroke-width="7.24"/>
            <path id="Path-43" data-name="Path" d="M0,54.559s11.838-10.849,27.212-22.9C40.6,21.157,56.648,9.71,69.832,3.715c1.687-.759,3.324-1.438,4.916-2.009A27.746,27.746,0,0,1,86.669.1,25.308,25.308,0,0,1,89.2.428" transform="translate(39.044 149.722)" fill="none" stroke="#000" stroke-miterlimit="10" stroke-width="7.24"/>
            <path id="Path-44" data-name="Path" d="M119.289,154.609c-13,3.765-21.192,12.653-27.37,25.129-4.109,8.285-7.666,17.812-14.128,24.683a69.442,69.442,0,0,1-22.131,16.2c-15.432,6.79-34.434,6.268-44.461-8.5C4.419,202.109,1.751,189.67.4,177.969-1.93,157.634,5.416,100.313,37.519,60.555,47.832,47.766,60.7,36.8,76.628,29.468a107.644,107.644,0,0,1,38.149-9.446L118.791,0" transform="translate(0 32.615)" fill="none" stroke="#000" stroke-miterlimit="10" stroke-width="7.24"/>
            <path id="Path-45" data-name="Path" d="M.49,0V10.037" transform="translate(214.294 261.673)" fill="none" stroke="#000" stroke-miterlimit="10" stroke-width="7.24"/>
            <path id="Path-46" data-name="Path" d="M.49,0V13.621" transform="translate(34.037 258.089)" fill="none" stroke="#000" stroke-miterlimit="10" stroke-width="7.24"/>
          </g>
          <path id="Path-47" data-name="Path" d="M16.9,11.411a12.048,12.048,0,0,1-3.108,8.209,8.934,8.934,0,0,1-3.652.775C4.539,20.4,0,15.293,0,8.984A12.021,12.021,0,0,1,3.113.779,8.887,8.887,0,0,1,6.766,0c5.6,0,10.13,5.107,10.13,11.411" transform="translate(123.525 61.867)" fill="#3fbdf1"/>
          <ellipse id="Oval-2" data-name="Oval" cx="10.122" cy="11.411" rx="10.122" ry="11.411" transform="translate(120.177 61.867)" fill="none" stroke="#000" stroke-miterlimit="10" stroke-width="7.24"/>
        </g>
      </g>
    </g>
    <path id="Shape-2" data-name="Shape" d="M3.96,46.948a30.968,30.968,0,0,1,3.408-35.2A33.582,33.582,0,0,1,42.3,1.327C59.714,6.347,69.622,24.066,64.431,40.9A32.644,32.644,0,0,1,36.283,63.462q-1.7.17-3.392.169A33.087,33.087,0,0,1,3.96,46.948Z" transform="translate(233.738 4.097)" fill="#d7e8f0"/>
    <path id="Shape-3" data-name="Shape" d="M1.307,22.13A15.53,15.53,0,0,1,4.725,4.755a16.859,16.859,0,0,1,23.269-.193,15.539,15.539,0,0,1,3.726,17.315A16.462,16.462,0,0,1,16.6,31.83h-.142A16.48,16.48,0,0,1,1.307,22.13Z" transform="translate(294.076 183.094)" fill="#3fbdf1"/>
    <path id="Shape-4" data-name="Shape" d="M4.851,22.57A12.426,12.426,0,0,1,2.946,4.692,13.451,13.451,0,0,1,21.434,2.848a12.425,12.425,0,0,1,1.908,17.878,13.273,13.273,0,0,1-8.85,4.625q-.676.067-1.349.067A13.425,13.425,0,0,1,4.851,22.57Z" transform="translate(339.989 39.653)" fill="#3fbdf1"/>
    <path id="Path-48" data-name="Path" d="M10.966,61.439c4.637,7.634,4.425,13.071,3.22,21.882-.482,3.355,3.254,5.625,6.283,3.938,26.764-14.867,51.745-3.11,83.657-10.4,11.718-2.66,26.327-8.173,36.341-17.036a28.231,28.231,0,0,0,5.1-16.144C145.565,19.572,111.492,0,69.471,0,42.541,0,18.881,8.036,5.356,20.142l-.037.036A28.11,28.11,0,0,0,0,36.25C-.021,44.9,6.632,54.279,10.966,61.439Z" transform="translate(221.726 82.731)" fill="#d7e8f0"/>
    <path id="Path-49" data-name="Path" d="M0,43.691V44.3c.15,8.438,4.529,16.3,9.715,23.1,3.474,4.548,7.6,9.6,6.619,15.18-.416,2.459-1.849,4.689-2.206,7.156s1,5.545,3.578,5.673c1.637.08,3.029-1.045,4.326-2.009,7.666-5.746,17.631-7.9,27.32-8.273s19.367.86,29.061,1.125c13.978.4,28.176-1.3,41.087-6.485,11.568-4.637,22.168-12.247,29.128-22.412,6.839-9.981,2.8-24.474-4.5-33.153-6.839-8.144-16.75-13.356-26.913-17.028-27.337-9.868-58.538-9.643-85.5,1.169-8,3.214-15.744,7.393-21.744,13.44C4.126,27.679.062,35.53,0,43.691Z" transform="translate(221.825 75.29)" fill="none" stroke="#000" stroke-miterlimit="10" stroke-width="7.24"/>
    <g id="Group-12" data-name="Group" transform="translate(254.938 108.285)">
      <ellipse id="Oval-3" data-name="Oval" cx="10.496" cy="10.149" rx="10.496" ry="10.149" transform="translate(68.557 0)" fill="#fff"/>
      <ellipse id="Oval-4" data-name="Oval" cx="10.496" cy="10.149" rx="10.496" ry="10.149" transform="translate(34.609 0)" fill="#fff"/>
      <ellipse id="Oval-5" data-name="Oval" cx="10.496" cy="10.149" rx="10.496" ry="10.149" transform="translate(0 0)" fill="#fff"/>
    </g>
  </g>
</svg>
