<svg id="Group_14" data-name="Group 14" xmlns="http://www.w3.org/2000/svg" width="23.272" height="22" viewBox="0 0 23.272 22">
  <g id="Group_13" data-name="Group 13">
    <path id="Path_4257" data-name="Path 4257" d="M9,12a2.055,2.055,0,0,1,2.115-2h6.348a2.055,2.055,0,0,1,2.115,2v6a2.055,2.055,0,0,1-2.115,2H11.115A2.055,2.055,0,0,1,9,18ZM9,24a2.055,2.055,0,0,1,2.115-2h6.348a2.055,2.055,0,0,1,2.115,2v6a2.055,2.055,0,0,1-2.115,2H11.115A2.055,2.055,0,0,1,9,30Zm12.694,0a2.055,2.055,0,0,1,2.115-2h6.348a2.055,2.055,0,0,1,2.115,2v6a2.055,2.055,0,0,1-2.115,2H23.809a2.055,2.055,0,0,1-2.115-2Zm0-12a2.055,2.055,0,0,1,2.115-2h6.348a2.055,2.055,0,0,1,2.115,2v6a2.055,2.055,0,0,1-2.115,2H23.809a2.055,2.055,0,0,1-2.115-2Z" transform="translate(-9 -10)" fill-rule="evenodd" stroke="#000000"/>
  </g>
</svg>
