<svg xmlns="http://www.w3.org/2000/svg" width="101.748" height="72.75" viewBox="0 0 101.748 72.75">
  <g id="Group_773" data-name="Group 773" transform="translate(544.752 776.5)">
    <path id="Icon_material-work" data-name="Icon material-work" d="M30,9H24V6a2.99,2.99,0,0,0-3-3H15a2.99,2.99,0,0,0-3,3V9H6a2.977,2.977,0,0,0-2.985,3L3,28.5a2.99,2.99,0,0,0,3,3H30a2.99,2.99,0,0,0,3-3V12A2.99,2.99,0,0,0,30,9ZM21,9H15V6h6Z" transform="translate(-547.752 -779.5)" fill="#ffffff"/>
    <g id="Icon_ionic-logo-game-controller-b" data-name="Icon ionic-logo-game-controller-b" transform="translate(-510.755 -733)">
      <path id="Path_4269" data-name="Path 4269" d="M9.5,14.386a1.364,1.364,0,1,0,1.357,1.364A1.359,1.359,0,0,0,9.5,14.386Z"/>
      <path id="Path_4270" data-name="Path 4270" d="M32.787,17.5C31.3,11.278,29.721,7.973,26.564,7.038a6.272,6.272,0,0,0-1.807-.281c-1.941,0-3.3,1.034-6.757,1.034s-4.816-1.034-6.757-1.034a6.2,6.2,0,0,0-1.807.281C6.279,7.973,4.7,11.285,3.213,17.5S2,28.216,3.755,29.053a2.051,2.051,0,0,0,.879.2c1.526,0,3.171-1.673,4.76-3.656,1.807-2.257,2.257-2.32,7.755-2.32h1.709c5.491,0,5.948.056,7.755,2.32,1.582,1.983,3.234,3.656,4.76,3.656a2.074,2.074,0,0,0,.879-.2C34,28.209,34.27,23.716,32.787,17.5ZM9.506,18.534a2.785,2.785,0,1,1,2.756-2.784A2.776,2.776,0,0,1,9.506,18.534Zm12.157-1.371a1.413,1.413,0,1,1,1.413-1.413A1.413,1.413,0,0,1,21.663,17.163ZM24.75,20.25a1.41,1.41,0,1,1,1.413-1.406A1.412,1.412,0,0,1,24.75,20.25Zm0-6.173a1.413,1.413,0,1,1,1.413-1.413A1.413,1.413,0,0,1,24.75,14.077Zm3.087,3.087A1.413,1.413,0,1,1,29.25,15.75,1.413,1.413,0,0,1,27.837,17.163Z" fill="#ffffff"/>
    </g>
    <path id="Icon_simple-designernews" data-name="Icon simple-designernews" d="M16.905,17.97c0-5.745-3.531-9.645-10.26-9.645H0v19.35H6.786c6.531,0,10.121-3.936,10.121-9.7v-.007ZM12.084,18c0,4.149-2.13,5.944-5.55,5.944H4.794V12.056h1.74C9.811,12.056,12.084,13.934,12.084,18ZM36,27.675V8.325H31.545v10.82L24.42,8.325H19.763v19.35h4.459V16.09l7.626,11.577H36v.006Z" transform="translate(-479.004 -779.675)" fill="#ffffff"/>
  </g>
</svg>
