<svg xmlns="http://www.w3.org/2000/svg" width="22" height="22" viewBox="0 0 22 22">
  <path id="Path_4263" data-name="Path 4263" d="M26.063,2H7.045A1.388,1.388,0,0,0,5.554,3.25v19.5A1.387,1.387,0,0,0,7.045,24H26.063a1.386,1.386,0,0,0,1.491-1.25V3.25A1.388,1.388,0,0,0,26.063,2ZM11.408,19.017a.277.277,0,0,1-.3.25H8.725a.277.277,0,0,1-.3-.25v-2a.279.279,0,0,1,.3-.25H11.11a.279.279,0,0,1,.3.25Zm0-5.017a.277.277,0,0,1-.3.25H8.725a.277.277,0,0,1-.3-.25V12a.278.278,0,0,1,.3-.25H11.11a.278.278,0,0,1,.3.25Zm0-5.017a.277.277,0,0,1-.3.25H8.725a.277.277,0,0,1-.3-.25v-2a.278.278,0,0,1,.3-.25H11.11a.278.278,0,0,1,.3.25ZM23.7,18.517H13.378a.508.508,0,1,1,0-1H23.7a.508.508,0,1,1,0,1Zm0-5.017H13.378a.508.508,0,1,1,0-1H23.7a.508.508,0,1,1,0,1Zm0-5.017H13.378a.554.554,0,0,1-.6-.5.554.554,0,0,1,.6-.5H23.7a.553.553,0,0,1,.6.5A.555.555,0,0,1,23.7,8.483Z" transform="translate(-5.554 -2)" fill="#1e90ff"/>
</svg>
