<svg xmlns="http://www.w3.org/2000/svg" width="22" height="22" viewBox="0 0 21.344 20.451" left="10" fill="#1e90ff">
  <g id="Group_15" data-name="Group 15" transform="translate(0)">
    <path id="Path_4259" data-name="Path 4259" d="M40.382,15.4H27.451a.425.425,0,0,0-.451.364v6.089c0,2.353,2.376,4.245,5.263,4.245H35.54c2.917,0,5.293-1.892,5.293-4.245V15.764A.425.425,0,0,0,40.382,15.4Z" transform="translate(-23.13 -15.4)"/>
    <path id="Path_4260" data-name="Path 4260" d="M76.642,21.4H74.5V33.851h2.142c.317,0,.6-.421.6-.9V22.3C77.237,21.761,76.959,21.4,76.642,21.4Z" transform="translate(-55.893 -21.4)"/>
    <path id="Path_4261" data-name="Path 4261" d="M21.566,21.4H19.245c-.344,0-.645.419-.645.9V32.953c0,.479.3.9.645.9h2.321V21.4Z" transform="translate(-18.6 -21.4)"/>
    <path id="Path_4262" data-name="Path 4262" d="M44.875,66.17H42.629v-1.5a.57.57,0,0,0-.591-.511H39.161V61.2H34.905v2.962H32.028a.57.57,0,0,0-.591.511v1.5H29.191a.57.57,0,0,0-.591.511v2.009a.57.57,0,0,0,.591.511H44.875a.57.57,0,0,0,.591-.511V66.681A.546.546,0,0,0,44.875,66.17Z" transform="translate(-26.247 -48.749)"/>
  </g>
</svg>
