<svg xmlns="http://www.w3.org/2000/svg" width="238.867" height="243.418" viewBox="0 0 238.867 243.418">
  <g id="Startup_Success_technology_growth_innovation_idea_thought_woman_statistics" data-name="Startup, Success, technology, growth |  innovation, idea, thought, woman, statistics" transform="translate(2.782 0.06)">
    <g id="Group" transform="translate(0 0)">
      <ellipse id="Oval" cx="5.714" cy="5.852" rx="5.714" ry="5.852" transform="translate(114.718 105.691) rotate(-44.95)" fill="#ccdde2"/>
      <ellipse id="Oval-2" data-name="Oval" cx="5.717" cy="5.855" rx="5.717" ry="5.855" transform="translate(98.601 103.715) rotate(-44.95)" fill="#ccdde2"/>
      <path id="Path" d="M0,29.267S24.917-12.574,74.723,3.8C124.45,20.178,112.7,82.348,112.668,82.511c.217-1.139,8.832-2.224,9.744-2.358C147.824,76.365,166.727,100.2,168.6,123.7c2.327,29.14-20.021,49.779-45.473,58.666" transform="translate(64.56 39.974)" fill="none" stroke="#ccdde2" stroke-miterlimit="10" stroke-width="5.5"/>
      <path id="Shape" d="M12.814,99.16C2.309,82.109,6.942,38.139,6.942,38.139L0,38.406C11.175,18.257,5.643,5.791,1.646.366L38.939,0s-.451,2.441-1.5,9.309S43.331,19.564,49.637,21.04s12.241-4.783,14.65-9.841a11.362,11.362,0,0,0,.681-8.967L75.887,5.44c13.073,5.59,21.924,13.423,27.777,22.245a.118.118,0,0,1,.04.054,57.377,57.377,0,0,1,4.893,9.039c4.265,9.932,5.614,20.436,5.543,29.942a88.959,88.959,0,0,0-6.068-30.049,25.08,25.08,0,0,0-23.333,6.781,30.381,30.381,0,0,0-5.7,7.382,44.641,44.641,0,0,1,3.236,18.286h1.214c.249,0,.485.011.724.032h.241l8.077.04,5.522.032a7.935,7.935,0,0,1,1.309.115,8.377,8.377,0,0,1,3.141,1.184c.125.072.236.155.35.227a7.221,7.221,0,0,1,.978.781,3.83,3.83,0,0,1,.3.291,9.04,9.04,0,0,1,1.855,2.783,3.206,3.206,0,0,1,.157.406,3.01,3.01,0,0,1,.132.4,8.892,8.892,0,0,1,.392,2.63c0,.166-.021.342-.021.508-.021.286-.05.553-.093.821-.021.144-.05.291-.082.436-.061.281-.133.564-.215.831a7.812,7.812,0,0,1-.331.874,3.223,3.223,0,0,1-.143.321c0,.032-.021.053-.042.083-.061.128-.133.27-.2.4a6.043,6.043,0,0,1-.371.612c-.157.241-.331.457-.506.676a7.69,7.69,0,0,1-.557.623,7.067,7.067,0,0,1-.668.6l-.265.217a8.043,8.043,0,0,1-.949.623c-.154.083-.318.168-.482.251a.094.094,0,0,1-.053.019c-.186.094-.371.168-.557.241s-.371.144-.565.206-.392.115-.589.158l-.162.029c-.154.035-.307.064-.464.088a7.8,7.8,0,0,1-.837.1,4.091,4.091,0,0,1-.514.021h.018c.114-.029.228-.04.342-.061h-.053a.294.294,0,0,1-.093,0,4.36,4.36,0,0,0-.53-.021H62.207a6.219,6.219,0,0,0-6.171,6.234,6.082,6.082,0,0,0,.265,1.85,6.2,6.2,0,0,0,1.524,2.545,6.126,6.126,0,0,0,4.358,1.829h14.34a.881.881,0,0,1-.04.136H72.362l-59.309.249A4.1,4.1,0,0,1,12.814,99.16Zm95.574-.011q.93-2.042,1.691-4.2c-.753,2.671-1.3,4.2-1.3,4.2Zm-10.7,0c.239,0,.474-.008.711-.029-.236.022-.472.029.413.029Z" transform="translate(74.328 141.058)" fill="#353642"/>
      <path id="Path-2" data-name="Path" d="M10.265,6.817S9.369,12.3,8.441,17.27c-2.651.029-5.3.051-7.923.072A29.936,29.936,0,0,1,2.342,0C4.5,4.957,7.752,6.464,10.265,6.817Z" transform="translate(104.807 123.782)" fill="#3fbdf1"/>
      <path id="Path-3" data-name="Path" d="M43.3,73.961A70.121,70.121,0,0,0,26.209,67.4l-1.951-.34s-1.453-3.331-1.461-3.342a38.427,38.427,0,0,1-2.16-5.9,22.535,22.535,0,0,1-.307-6.6c.382-3.272,1.893-10.194,4.623-12.375,2.277-1.807,3.215-1.428,4.506-4.253.928-2.016,1.3-5.4-.5-6.889-2-1.631-2.852-.8-5.243-.551C14.63,28.053,9.438,21.458,6.1,13.836a14.612,14.612,0,0,0-1.948-3.6C3.155,9.024,1.78,8.751.653,7.77A1.626,1.626,0,0,1,.075,6.059a2.136,2.136,0,0,1,.578-.738A18.6,18.6,0,0,1,8.12,1.084,27.078,27.078,0,0,1,21.639.658,21.616,21.616,0,0,1,33.32,9.679c3.894,6.232,4.832,12.7,2.651,19.139-2.235,6.6-4.729,14.348-.53,20.7C41.031,57.95,44.4,63.882,43.3,73.961Z" transform="translate(115.341 76.432)" fill="#3fbdf1"/>
      <path id="Shape-2" data-name="Shape" d="M5.774,11.37a6.039,6.039,0,0,1-.689-.043A5.832,5.832,0,0,1,.024,5,5.486,5.486,0,0,1,5.482,0H5.49a5.989,5.989,0,0,1,.689.043,5.833,5.833,0,0,1,5.06,6.331,5.487,5.487,0,0,1-5.444,5Z" transform="translate(100.999 98.128)" fill="#ccdde2"/>
      <g id="Group-2" data-name="Group" transform="translate(9.333 53.775)">
        <g id="Group-3" data-name="Group" transform="translate(0 0)">
          <path id="Path-4" data-name="Path" d="M67.057,0c-2.651.029-5.3.051-7.923.072C39.159.176,20.039-.1,0,3.521" transform="translate(36.868 87.277)" fill="none" stroke="#000" stroke-miterlimit="10" stroke-width="5.5"/>
          <path id="Path-5" data-name="Path" d="M0,0C.761.168,1.514.345,2.266.535a74.806,74.806,0,0,1,8.652,2.673A63.963,63.963,0,0,1,19.355,7.1a.016.016,0,0,1,.021,0,55.341,55.341,0,0,1,11.745,8.6,46.276,46.276,0,0,1,7.573,9.755.117.117,0,0,1,.04.053,64.5,64.5,0,0,1,4.382,8.927,88.956,88.956,0,0,1,6.067,30.049,78.312,78.312,0,0,1-4.048,28.231q-.761,2.155-1.691,4.2c-.04.1-.093.2-.133.3" transform="translate(129.95 89.52)" fill="none" stroke="#000" stroke-miterlimit="10" stroke-width="5.5"/>
          <path id="Path-6" data-name="Path" d="M.417.35V.318A.883.883,0,0,0,.456.181" transform="translate(141.051 186.251)" fill="none" stroke="#000" stroke-miterlimit="10" stroke-width="5.5"/>
          <path id="Path-7" data-name="Path" d="M0,0S5.768,2.826,9.558,11.648a44.731,44.731,0,0,1,3.237,18.286v.021a82.123,82.123,0,0,1-2.227,17.527v.037" transform="translate(134.472 126.48)" fill="none" stroke="#000" stroke-miterlimit="10" stroke-width="5.5"/>
          <path id="Path-8" data-name="Path" d="M0,14.48C1.018,10.6,2.651,6.591,3.878,4.906,5.808,2.286,8.326-.21,11.565.014c2.081.136,4.124,1.3,4.217,3.6.087,2.494-2.521,5.264-3.358,7.609a14.84,14.84,0,0,0-.74,7.274,6.275,6.275,0,0,0,4.822,4.748,3.36,3.36,0,0,0,2.563-.35c2.237-1.428,1.768-5.229,1.678-7.472-.106-2.516-.1-5.36,2.025-7.082,1.564-1.265,3.936-.425,5.089.965,2,2.406,2.1,6.029,2.2,8.991.3,8.924-1.272,17.479-6.425,24.991-2.651,3.879-5.381,7.36-6.454,12.119-3.34,14.789-3.711,25.042-5.63,40.061" transform="translate(25.313 0)" fill="none" stroke="#000" stroke-miterlimit="10" stroke-width="5.5"/>
          <path id="Path-9" data-name="Path" d="M77.328,156.133C67.086,126.774,71.937,94.7,71.937,94.7L16.919,96.457A16.332,16.332,0,0,1,4.381,91.178a16.63,16.63,0,0,1-4.289-13L13.568,28.611l2.916-10.573a15.444,15.444,0,0,0-.6-10.063l-1.373-3.3S12.017-.449,17.6.032a19.417,19.417,0,0,1,8.5,3.168c1.977,1.27,4.994,3.727,4.061,6.451-1.1,3.208-5.426,4.01-7.965,2.206" transform="translate(0 30.7)" fill="none" stroke="#000" stroke-miterlimit="10" stroke-width="5.5"/>
          <path id="Path-10" data-name="Path" d="M.838,8.384S-3.875-2.31,9.055.457,25.081,17.474,15.213,15.87" transform="translate(14.904 22.321)" fill="none" stroke="#000" stroke-miterlimit="10" stroke-width="5.5"/>
          <path id="Path-11" data-name="Path" d="M1.354,7.813S-2.781,2.747,3.4.327,32.028,9.334,17.63,20.589" transform="translate(18.65 14.353)" fill="none" stroke="#000" stroke-miterlimit="10" stroke-width="5.5"/>
          <path id="Path-12" data-name="Path" d="M13.909,54.579a9.08,9.08,0,0,1-3.687.241C7.7,54.466,4.444,52.948,2.3,48a20.166,20.166,0,0,1-1.081-3.128C.126,40.781-.352,35.087.287,27.147c.125-1.527.31-3.077.567-4.625A42.006,42.006,0,0,1,2.9,14.627a.038.038,0,0,1,.021-.032C5.263,8.36,9.374,3.1,16.287,1.075a26.994,26.994,0,0,1,15.835.23A21.616,21.616,0,0,1,43.8,10.325c3.894,6.232,4.832,12.7,2.651,19.139-2.235,6.6-4.729,14.348-.53,20.7,5.582,8.448,8.951,14.38,7.87,24.459" transform="translate(95.54 22.005)" fill="none" stroke="#000" stroke-miterlimit="10" stroke-width="5.5"/>
          <path id="Path-13" data-name="Path" d="M.712,20.783A29.456,29.456,0,0,1,3.575,0" transform="translate(93.17 66.879)" fill="none" stroke="#000" stroke-miterlimit="10" stroke-width="5.5"/>
          <path id="Path-14" data-name="Path" d="M0,1.463S4.445-3.224,9.6,4.179" transform="translate(96.395 43.053)" fill="none" stroke="#000" stroke-miterlimit="10" stroke-width="5.5"/>
        </g>
        <path id="Path-15" data-name="Path" d="M2.362,9.231A4.376,4.376,0,0,0,8.169,7.806,15.867,15.867,0,0,0,10.6.535c.021-.179.045-.356.061-.535C8.368,3.633,3.918,4.5,0,4.884a7.284,7.284,0,0,0,1.275,3.3A4.106,4.106,0,0,0,2.362,9.231Z" transform="translate(105.351 58.883)" fill="none" stroke="#000" stroke-linecap="round" stroke-linejoin="round" stroke-miterlimit="10" stroke-width="5.5"/>
        <g id="Group-4" data-name="Group" transform="translate(88.247 32.318)">
          <path id="Path-16" data-name="Path" d="M.481.481.47.47" transform="translate(39.398 51.671)" fill="none" stroke="#000" stroke-miterlimit="10" stroke-width="5.5"/>
          <path id="Path-17" data-name="Path" d="M0,1.318S1.511-1.15,6.674.668,11.9,5.456,11.9,5.456" transform="translate(22.393 9.439)" fill="none" stroke="#000" stroke-miterlimit="10" stroke-width="5.5"/>
          <path id="Path-18" data-name="Path" d="M0,.541s2.386-1.216,4.254,0" transform="translate(10.656 16.352)" fill="none" stroke="#000" stroke-miterlimit="10" stroke-width="5.5"/>
          <path id="Path-19" data-name="Path" d="M0,.541s2.386-1.216,4.241,0" transform="translate(23.511 17.472)" fill="none" stroke="#000" stroke-miterlimit="10" stroke-width="5.5"/>
          <path id="Path-20" data-name="Path" d="M7.541,44.506s-.9,5.486-1.824,10.453c-.135.706-.265,1.4-.382,2.088-.607,3.344-1.092,6.317-1.113,7.218C4.069,71.751,11.085,76.068,17.863,76c9.511-.1,15.072-9.028,14.176-17.965-.586-1.631-1.185-3.262-1.771-4.892a42.952,42.952,0,0,1-2.155-6.328,21.655,21.655,0,0,1-.122-6.569c.382-3.262,1.01-8.125,3.74-10.306,2.277-1.807,4.655-2.994,5.953-5.82.928-2.016.885-4.612-.917-6.1-2-1.631-5.161-1.433-7.552-1.2C13.794,18.413,11.228,2.67,7.056.459,3.637-1.362,1.071,2.723.268,4.239L.236,4.3a.064.064,0,0,1-.019.04A4.617,4.617,0,0,0,0,4.79" transform="translate(9.95 0)" fill="none" stroke="#000" stroke-miterlimit="10" stroke-width="5.5"/>
          <path id="Path-21" data-name="Path" d="M1.494,0S-.118,5.32.007,6.117s2,.241,2,.241" transform="translate(15.603 18.705)" fill="none" stroke="#000" stroke-miterlimit="10" stroke-width="5.5"/>
          <ellipse id="Oval-3" data-name="Oval" cx="6.445" cy="6.602" rx="6.445" ry="6.602" transform="translate(16.113 19.583) rotate(-44.95)" fill="none" stroke="#000" stroke-miterlimit="10" stroke-width="5.5"/>
          <ellipse id="Oval-4" data-name="Oval" cx="6.445" cy="6.602" rx="6.445" ry="6.602" transform="translate(0 17.608) rotate(-44.95)" fill="none" stroke="#000" stroke-miterlimit="10" stroke-width="5.5"/>
        </g>
      </g>
      <path id="Path-22" data-name="Path" d="M3.382.414,0,0" transform="translate(112.985 104.595)" fill="none" stroke="#000" stroke-miterlimit="10" stroke-width="5.5"/>
      <path id="Shape-3" data-name="Shape" d="M8.827,29.988a6.816,6.816,0,0,0-1.02-.727,15.24,15.24,0,0,1-3.711-3A15.695,15.695,0,0,1,14.717.021h0A15.515,15.515,0,0,1,29.514,8.859a15.771,15.771,0,0,1-2.349,17.18,1.134,1.134,0,0,0-.093.115,15.855,15.855,0,0,1-3.862,3.128,5,5,0,0,0-1,.727,14.782,14.782,0,0,1-13.383-.021Z" transform="translate(40.221 14.993)" fill="#3fbdf1"/>
      <path id="Path-23" data-name="Path" d="M13.367.019a5.958,5.958,0,0,0-1.93,4.414v.716a4.934,4.934,0,0,1-4.241,5A4.729,4.729,0,0,1,3.532,8.941,4.814,4.814,0,0,1,1.956,5.392v-.96A6.012,6.012,0,0,0,0,0,14.8,14.8,0,0,0,13.378.019Z" transform="translate(49.058 44.986)" fill="#353642"/>
      <g id="Group-5" data-name="Group" transform="translate(27.983 0)">
        <g id="Group-6" data-name="Group" transform="translate(0 14.958)">
          <path id="Path-24" data-name="Path" d="M13.367.019a5.958,5.958,0,0,0-1.93,4.414v.716a4.934,4.934,0,0,1-4.241,5A4.729,4.729,0,0,1,3.532,8.941,4.814,4.814,0,0,1,1.956,5.392v-.96A6.012,6.012,0,0,0,0,0,14.8,14.8,0,0,0,13.378.019Z" transform="translate(21.076 30.028)" fill="none" stroke="#000" stroke-miterlimit="10" stroke-width="5.5"/>
          <path id="Path-25" data-name="Path" d="M31.053,15.7a15.666,15.666,0,0,1-3.9,10.381,1.068,1.068,0,0,0-.087.11,15.812,15.812,0,0,1-3.87,3.131,5.3,5.3,0,0,0-1,.727,14.8,14.8,0,0,1-13.378-.019A6.532,6.532,0,0,0,7.8,29.293,15.71,15.71,0,0,1,16.173.014,15.6,15.6,0,0,1,31.053,15.7Z" transform="translate(12.241 0)" fill="none" stroke="#000" stroke-miterlimit="10" stroke-width="5.5"/>
          <path id="Path-26" data-name="Path" d="M4.448,18.153.891,6.262,0,2.893a.459.459,0,0,1,.338-.444.454.454,0,0,1,.513.214c.8,1.417,2.052,3.195,3.3,3.149,2.076-.075.371-6.43-1.325-5.764s1.556,4.866,4.906,5.39,2.433-5.157,0-5.382-.755,4.561,3.618,5.382S14.91,1.4,13.725.431s-.816,4.633,1.93,5.531a1.583,1.583,0,0,0,1.9-1.088c.2-.444.1-2.689-.307-2-.822,1.42-.983,3.192-1.386,4.759-.856,3.315-2.166,6.488-2.916,9.833" transform="translate(18.931 13.481)" fill="none" stroke="#000" stroke-miterlimit="10" stroke-width="5.5"/>
          <path id="Path-27" data-name="Path" d="M0,.394c1.877-.888,174.946,0,174.946,0" transform="translate(0 225.256)" fill="none" stroke="#000" stroke-miterlimit="10" stroke-width="5.5"/>
        </g>
        <g id="Group-7" data-name="Group" transform="translate(3.48)">
          <path id="Path-28" data-name="Path" d="M.36,9.418.206,0" transform="translate(23.916)" fill="none" stroke="#000" stroke-miterlimit="10" stroke-width="7.34"/>
          <path id="Path-29" data-name="Path" d="M6.465,6.8,0,0" transform="translate(0 11.381)" fill="none" stroke="#000" stroke-miterlimit="10" stroke-width="7.34"/>
          <path id="Path-30" data-name="Path" d="M0,6.657,6.608,0" transform="translate(42.151 11.945)" fill="none" stroke="#000" stroke-miterlimit="10" stroke-width="7.34"/>
        </g>
      </g>
      <path id="Path-31" data-name="Path" d="M51.5,17.675l.225.021c-.122.021-.265.043-.39.072H51.14l-17.948-.094H31.164L1.01,17.52H.668a.223.223,0,0,1-.082,0H.567A3.588,3.588,0,0,1,0,17.48a8.563,8.563,0,0,0,4.408-1.847c.2-.168.4-.329.588-.511l.021-.021a1.2,1.2,0,0,0,.122-.115A8.84,8.84,0,0,0,7.716,9.241V8.751a8.8,8.8,0,0,0-7-8.6A.016.016,0,0,0,.7.148C.5.1.278.066.072.033L.514,0A1.461,1.461,0,0,1,.732,0h.35L26.557.138l4.689.021L35.408.18h2.256a8.773,8.773,0,0,1,7.851,8.737,8.358,8.358,0,0,1-.093,1.238,8.756,8.756,0,0,1-8.331,7.5h14.87c-.22.008-.363.008-.467.019Z" transform="translate(121.187 210.084)" fill="#fff"/>
      <path id="Path-32" data-name="Path" d="M17.72,10.63a6.123,6.123,0,0,0,4.368,1.829H7.3c-2.831,0-4.368-.7-5.49-1.829A6.275,6.275,0,0,1,0,6.224C0,2.807,2.781,0,7.3,0H22.088a6.17,6.17,0,0,0-5.71,3.841A6.263,6.263,0,0,0,17.72,10.63Z" transform="translate(114.43 227.754)" fill="#d7e8f0"/>
      <path id="Path-33" data-name="Path" d="M23.013,8.868a4.071,4.071,0,0,1-.021.508c-.021.281-.05.551-.093.821-.021.144-.05.291-.082.436-.061.267-.133.561-.215.831a7.812,7.812,0,0,1-.331.874,3.18,3.18,0,0,1-.143.321c0,.032-.021.053-.042.083-.061.136-.133.267-.2.4-.114.209-.239.414-.371.612-.156.241-.331.457-.506.676a7.731,7.731,0,0,1-.557.623,7.12,7.12,0,0,1-.668.6l-.265.217a8.081,8.081,0,0,1-.949.623c-.154.083-.318.168-.482.251a.1.1,0,0,1-.053.019c-.186.094-.371.168-.557.241s-.371.144-.565.206-.392.115-.588.158a9.28,9.28,0,0,1-1.463.217h-.474c.114-.029.228-.04.342-.061a.055.055,0,0,1,.04,0,.689.689,0,0,1-.154-.021.334.334,0,0,1,.1,0H.265a8.653,8.653,0,0,0,5.087-2.008,7.858,7.858,0,0,0,.62-.569,6.034,6.034,0,0,0,.464-.511,3.917,3.917,0,0,0,.307-.393c.061-.075.114-.147.164-.219a3.479,3.479,0,0,0,.265-.417,4.017,4.017,0,0,0,.321-.535,5.267,5.267,0,0,0,.265-.551c.04-.083.072-.176.125-.267.072-.187.133-.374.194-.561.085-.267.167-.551.228-.829a3.659,3.659,0,0,0,.082-.457.461.461,0,0,0,.021-.115.315.315,0,0,0,.021-.094,2.946,2.946,0,0,1,.04-.3V9.611a6.047,6.047,0,0,0,.053-.874,2.578,2.578,0,0,0-.021-.4V8.239a2.488,2.488,0,0,0-.032-.4,8.39,8.39,0,0,0-.485-2.109,6.829,6.829,0,0,0-.53-1.174,7.2,7.2,0,0,0-.679-1.069,2.865,2.865,0,0,0-.217-.281c-.032-.032-.061-.075-.1-.115A4.3,4.3,0,0,0,6,2.585c-.122-.123-.265-.249-.39-.382a3.755,3.755,0,0,0-.506-.417c-.175-.126-.289-.217-.443-.321a5.429,5.429,0,0,0-.721-.446A5.124,5.124,0,0,0,3.21.663a8.947,8.947,0,0,0-.9-.332A1.579,1.579,0,0,0,1.993.249,6.657,6.657,0,0,0,1.129.061C.983.029.84.019.687,0H.665A.118.118,0,0,1,.6,0H.758L8.835.04l5.521.032a7.92,7.92,0,0,1,1.309.115,8.377,8.377,0,0,1,3.162,1.184c.125.072.236.155.35.227a7.188,7.188,0,0,1,.978.781,3.868,3.868,0,0,1,.3.291,9.041,9.041,0,0,1,1.855,2.783,3.2,3.2,0,0,1,.156.406,2.991,2.991,0,0,1,.133.4,8.891,8.891,0,0,1,.414,2.6Z" transform="translate(158.013 210.259)" fill="#3fbdf1"/>
      <g id="Group-8" data-name="Group" transform="translate(114.433 210.058)">
        <path id="Path-34" data-name="Path" d="M60.03,9.07a4.07,4.07,0,0,1-.021.508c-.021.281-.05.551-.093.821-.021.144-.05.291-.082.436-.061.267-.133.561-.215.831a7.811,7.811,0,0,1-.331.874,1.878,1.878,0,0,1-.154.321c0,.032-.021.053-.042.083-.061.136-.133.267-.2.4-.114.209-.239.414-.371.612-.156.241-.331.457-.506.676a7.874,7.874,0,0,1-.567.623,7.119,7.119,0,0,1-.668.6l-.265.217a8.081,8.081,0,0,1-.949.623c-.154.083-.318.168-.482.251a.1.1,0,0,1-.053.019c-.186.094-.371.168-.557.241s-.371.144-.565.206-.392.115-.588.158l-.162.029c-.154.035-.307.064-.464.088a7.793,7.793,0,0,1-.838.1,4.053,4.053,0,0,1-.514.021H51.3l-17.919-.088L29.155,17.7,1.01,17.552a3.022,3.022,0,0,1-.31-.021c-.236,0-.464-.021-.7-.04A8.814,8.814,0,0,0,7.716,9.251V8.8A8.8,8.8,0,0,0,.71.148C.5.106.3.076.082.044A5.988,5.988,0,0,1,.7,0,1.461,1.461,0,0,1,.917,0h.175L29.237.148,35.6.18h2.256L51.373.253a8.916,8.916,0,0,1,1.325.1,8.751,8.751,0,0,1,3.162,1.184c.125.072.236.155.35.227a9.043,9.043,0,0,1,.978.781c.1.094.2.187.3.291a9.042,9.042,0,0,1,1.855,2.783l.156.406a3.592,3.592,0,0,1,.133.4,8.892,8.892,0,0,1,.4,2.636Z" transform="translate(6.563 0)" fill="none" stroke="#000" stroke-linecap="square" stroke-linejoin="round" stroke-miterlimit="10" stroke-width="5.5"/>
        <path id="Path-35" data-name="Path" d="M45.5,8.763a8.042,8.042,0,0,1-.042.874V9.7c-.021.136-.04.267-.061.4a.46.46,0,0,1-.021.115,3.656,3.656,0,0,1-.082.457c-.061.267-.143.559-.228.829-.061.187-.122.374-.194.561-.053.094-.085.187-.125.267a5.266,5.266,0,0,1-.265.551,4.017,4.017,0,0,1-.321.535,3.48,3.48,0,0,1-.265.417c-.05.072-.1.144-.164.219a3.917,3.917,0,0,1-.307.393,6.033,6.033,0,0,1-.464.511,8.272,8.272,0,0,1-.62.559,8.653,8.653,0,0,1-5.084,2.026H1.021c-.329,0-.668-.019-1.01-.051a6.412,6.412,0,0,0,.66-.115.079.079,0,0,0,.053,0H.742a8.741,8.741,0,0,0,4.411-2.406l.021-.021A8.821,8.821,0,0,0,7.687,9.092V8.747A8.8,8.8,0,0,0,0,.059C.228.029.453.019.681.008a.481.481,0,0,1,.175,0,.016.016,0,0,1,.021,0,.555.555,0,0,1,.133,0H36.789a5.384,5.384,0,0,1,.724.032h.082a.118.118,0,0,0,.061,0H37.7L38.12.1a6.657,6.657,0,0,1,.864.187c.1.021.217.051.321.083A8.948,8.948,0,0,1,40.2.7c.247.1.5.23.732.356a6.83,6.83,0,0,1,.721.446c.154.1.3.206.443.321s.339.267.506.417.265.267.39.382c.156.168.31.334.453.511.042.04.072.083.1.115l.217.281A10.1,10.1,0,0,1,44.444,4.6a10.642,10.642,0,0,1,.53,1.174,9.293,9.293,0,0,1,.485,2.109c0,.136.021.267.032.4v.094c.005.12.005.257.005.39Z" transform="translate(6.592 0.148)" fill="none" stroke="#000" stroke-linecap="square" stroke-linejoin="round" stroke-miterlimit="10" stroke-width="5.5"/>
        <path id="Path-36" data-name="Path" d="M58.671,12.484H7.263A10.088,10.088,0,0,1,3.883,12a5.9,5.9,0,0,1-.618-.267c-.2-.1-.371-.209-.546-.313a4.343,4.343,0,0,1-.485-.364c-.154-.136-.3-.267-.432-.406A6.2,6.2,0,0,1,.279,8.1,6.079,6.079,0,0,1,0,6.252a5.5,5.5,0,0,1,.042-.727,5.257,5.257,0,0,1,.215-1,5.1,5.1,0,0,1,.66-1.444,4.392,4.392,0,0,1,.6-.8,5.907,5.907,0,0,1,.445-.449A7.828,7.828,0,0,1,7.295,0H58.218a.334.334,0,0,0-.1,0h-.032A.016.016,0,0,0,58.1,0a.174.174,0,0,0,.072,0h.053c-.114.021-.228.032-.342.061H57.82a6.245,6.245,0,0,0,.453,12.314c-.252.1-.488.1.4.1Z" transform="translate(0.032 17.666)" fill="none" stroke="#000" stroke-linecap="square" stroke-linejoin="round" stroke-miterlimit="10" stroke-width="5.5"/>
        <path id="Path-37" data-name="Path" d="M42.359,12.429c-.236.021-.472.029-.71.029H6.147A6.126,6.126,0,0,1,1.79,10.63,6.2,6.2,0,0,1,.266,8.084,6.079,6.079,0,0,1,0,6.234,6.219,6.219,0,0,1,6.171,0H41.648a4.351,4.351,0,0,1,.53.021.284.284,0,0,0,.093,0h.053c-.114.021-.228.032-.342.061h-.061A6.245,6.245,0,0,0,42.375,12.4Z" transform="translate(15.93 17.691)" fill="none" stroke="#000" stroke-linecap="square" stroke-linejoin="round" stroke-miterlimit="10" stroke-width="5.5"/>
        <path id="Path-38" data-name="Path" d="M15.907,6.234a6.2,6.2,0,0,0,6.171,6.224H7.295c-2.823,0-4.368-.7-5.492-1.829A6.221,6.221,0,0,1,0,6.234C0,2.807,2.773,0,7.295,0H22.078a6.219,6.219,0,0,0-6.171,6.234Z" transform="translate(0 17.691)" fill="none" stroke="#000" stroke-linecap="square" stroke-linejoin="round" stroke-miterlimit="10" stroke-width="5.5"/>
        <path id="Path-39" data-name="Path" d="M1.124.466H0A5.719,5.719,0,0,0,.71.436C.474.457.239.466,1.124.466Z" transform="translate(57.579 29.684)" fill="none" stroke="#000" stroke-linecap="square" stroke-linejoin="round" stroke-miterlimit="10" stroke-width="5.5"/>
        <path id="Path-40" data-name="Path" d="M.628.463C.424.463.207.431,0,.431H1.124C.339.437.432.463.628.463Z" transform="translate(57.579 17.255)" fill="none" stroke="#000" stroke-linecap="square" stroke-linejoin="round" stroke-miterlimit="10" stroke-width="5.5"/>
      </g>
      <path id="Path-41" data-name="Path" d="M18.586,55.3.185,7.753A6.281,6.281,0,0,1,1.31,2.4,6.168,6.168,0,0,1,6.186,0h73.1a7.321,7.321,0,0,1,7.107,5.646l20.145,47.539a6.281,6.281,0,0,1-1.157,5.32,6.168,6.168,0,0,1-4.86,2.376H25.671A7.315,7.315,0,0,1,18.586,55.3Z" transform="translate(0 161.459)" fill="#fff" opacity="0.54"/>
      <path id="Path-42" data-name="Path" d="M18.586,55.3.185,7.753A6.281,6.281,0,0,1,1.31,2.4,6.168,6.168,0,0,1,6.186,0h73.1a7.321,7.321,0,0,1,7.107,5.646l20.145,47.539a6.281,6.281,0,0,1-1.157,5.32,6.168,6.168,0,0,1-4.86,2.376H25.671A7.315,7.315,0,0,1,18.586,55.3Z" transform="translate(0 161.459)" fill="#3fbdf1"/>
      <path id="Path-43" data-name="Path" d="M18.586,55.3.185,7.753A6.281,6.281,0,0,1,1.31,2.4,6.168,6.168,0,0,1,6.186,0h73.1a7.321,7.321,0,0,1,7.107,5.646l20.145,47.539a6.281,6.281,0,0,1-1.157,5.32,6.168,6.168,0,0,1-4.86,2.376H25.671A7.315,7.315,0,0,1,18.586,55.3Z" transform="translate(0 161.459)" fill="none" stroke="#000" stroke-linecap="square" stroke-linejoin="round" stroke-miterlimit="10" stroke-width="5.5"/>
      <path id="Path-44" data-name="Path" d="M17.135,51.017.171,7.154A5.794,5.794,0,0,1,1.206,2.217,5.69,5.69,0,0,1,5.7,0H73.129a6.755,6.755,0,0,1,6.555,5.211L98.268,49.055A5.8,5.8,0,0,1,97.2,53.964a5.692,5.692,0,0,1-4.483,2.194H23.677a6.754,6.754,0,0,1-6.542-5.141Z" transform="translate(4.138 163.814)" fill="#3fbdf1"/>
      <path id="Path-45" data-name="Path" d="M46.247,1.581C45.354.226,43.893-.376,42.981.244s-.925,2.206-.032,3.561a4.433,4.433,0,0,0,.472.58L36.795,18.493a2.745,2.745,0,0,0-3.051-.326,2.3,2.3,0,0,0-.93,1.7l-4.527-1.543-3.958-1.337-1.294-.428a5.9,5.9,0,0,0-.671-1.388c-1.256-1.9-3.308-2.748-4.588-1.89s-1.294,3.053-.072,4.943L10.174,28.6c-1.643-1.361-3.581-1.781-4.922-.882C3.428,28.949,3.4,32.144,5.19,34.86c.072.107.154.2.228.3L.39,42.089l-.045.067A1.78,1.78,0,0,0,.17,43.967a1.745,1.745,0,0,0,3.091.14l4.472-6.788a3.762,3.762,0,0,0,4.011.246c1.744-1.171,1.826-4.133.265-6.764l7.223-11a2.77,2.77,0,0,0,3.085.353,2.208,2.208,0,0,0,.893-1.417l.53.152L27.766,20l5.153,1.4a5.716,5.716,0,0,0,.769,1.748c1.254,1.9,3.308,2.748,4.588,1.89s1.3-3.1.042-5a6.022,6.022,0,0,0-.62-.778L44,4.888a1.95,1.95,0,0,0,2.2.251c.925-.6.938-2.2.04-3.558Z" transform="translate(26.148 170.299)" fill="#fff"/>
      <path id="Path-46" data-name="Path" d="M11.976,2.8H2.208A2.305,2.305,0,0,1,.087,1.414,1.045,1.045,0,0,1,0,1.011,1.017,1.017,0,0,1,1.01,0H11.4a2.407,2.407,0,0,0,.578,2.8Z" transform="translate(12.442 169.853)" fill="#d7e8f0"/>
      <path id="Path-47" data-name="Path" d="M7.145,1.794a1.012,1.012,0,0,1-1,1.011H.821A2.368,2.368,0,0,1,.251,0H4.943A2.305,2.305,0,0,1,7.063,1.382a1.05,1.05,0,0,1,.082.412Z" transform="translate(23.597 169.853)" fill="#3fbdf1"/>
      <path id="Path-48" data-name="Path" d="M4.7,3.742a1.448,1.448,0,0,1-.1.155,2.408,2.408,0,0,1-3.385.184,3.188,3.188,0,0,1-.395-.34,2.368,2.368,0,0,1-.57-2.8.91.91,0,0,1,.1-.155A2.4,2.4,0,0,1,3.723.593a3.164,3.164,0,0,1,.4.345,2.388,2.388,0,0,1,.573,2.8Z" transform="translate(23.602 168.916)" fill="#fff"/>
      <path id="Path-49" data-name="Path" d="M11.83,1.794A1.014,1.014,0,0,1,10.82,2.8H.565A2.354,2.354,0,0,0,0,0H9.633a2.305,2.305,0,0,1,2.121,1.39A1.045,1.045,0,0,1,11.83,1.794Z" transform="translate(21.369 176.04)" fill="#3fbdf1"/>
      <path id="Path-50" data-name="Path" d="M7.032,2.8H2.208A2.305,2.305,0,0,1,.087,1.422,1.077,1.077,0,0,1,0,1.013,1.012,1.012,0,0,1,.292.3,1,1,0,0,1,1,0H6.468a2.35,2.35,0,0,1,.565,2.8Z" transform="translate(14.901 176.048)" fill="#d7e8f0"/>
      <path id="Path-51" data-name="Path" d="M4.695,3.739a.656.656,0,0,1-.087.155,2.4,2.4,0,0,1-3.38.192,3.642,3.642,0,0,1-.411-.348,2.39,2.39,0,0,1-.57-2.8.8.8,0,0,1,.1-.152A2.408,2.408,0,0,1,3.727.6a3.417,3.417,0,0,1,.392.34,2.339,2.339,0,0,1,.575,2.8Z" transform="translate(17.239 175.113)" fill="#fff"/>
      <path id="Path-52" data-name="Path" d="M8.347,2.807H2.208A2.313,2.313,0,0,1,.087,1.422,1.045,1.045,0,0,1,0,1.019,1.017,1.017,0,0,1,1.01,0H7.764a2.419,2.419,0,0,0,.583,2.807Z" transform="translate(17.003 182.194)" fill="#3fbdf1"/>
      <path id="Path-53" data-name="Path" d="M10.768,1.8a1.006,1.006,0,0,1-1,1.005H.818A2.4,2.4,0,0,1,.245,0H8.571a2.3,2.3,0,0,1,2.107,1.39A1.05,1.05,0,0,1,10.768,1.8Z" transform="translate(24.533 182.18)" fill="#d7e8f0"/>
      <path id="Path-54" data-name="Path" d="M4.69,3.739a.8.8,0,0,1-.1.152,2.4,2.4,0,0,1-3.377.192,3.935,3.935,0,0,1-.4-.345A2.4,2.4,0,0,1,.245.932a1.2,1.2,0,0,1,.1-.152A2.416,2.416,0,0,1,3.726.592a3.72,3.72,0,0,1,.395.34,2.374,2.374,0,0,1,.57,2.807Z" transform="translate(24.533 181.262)" fill="#fff"/>
      <path id="Path-55" data-name="Path" d="M8.352,2.807H2.211A2.313,2.313,0,0,1,.09,1.422a1,1,0,0,1-.09-.4A1.017,1.017,0,0,1,1.01,0H7.767a2.416,2.416,0,0,0,.586,2.807Z" transform="translate(56.692 211.158)" fill="#3fbdf1"/>
      <path id="Path-56" data-name="Path" d="M25.191,1.8a1.012,1.012,0,0,1-.295.712,1,1,0,0,1-.707.293H.818A2.4,2.4,0,0,1,.245,0H22.993A2.3,2.3,0,0,1,25.1,1.39a1.05,1.05,0,0,1,.09.412Z" transform="translate(64.227 211.158)" fill="#d7e8f0"/>
      <path id="Path-57" data-name="Path" d="M4.69,3.739a.8.8,0,0,1-.1.152,2.4,2.4,0,0,1-3.377.192,3.666,3.666,0,0,1-.4-.345A2.4,2.4,0,0,1,.245.932a1.2,1.2,0,0,1,.1-.152A2.416,2.416,0,0,1,3.726.592a3.72,3.72,0,0,1,.395.34,2.372,2.372,0,0,1,.57,2.807Z" transform="translate(64.227 210.226)" fill="#fff"/>
    </g>
  </g>
</svg>
