<svg xmlns="http://www.w3.org/2000/svg" width="16" height="19.36" viewBox="0 0 16 19.36">
  <g id="man-user" transform="translate(-41.895)">
    <path id="Path_4253" data-name="Path 4253" d="M109.428,8.49c2.7,0,4.893-1.9,4.893-4.245S113.6,0,109.428,0s-4.893,1.9-4.893,4.245S106.726,8.49,109.428,8.49Z" transform="translate(-59.533)" fill="#b6b7b7"/>
    <path id="Path_4254" data-name="Path 4254" d="M41.9,300.445c0-.143,0-.04,0,0Z" transform="translate(0 -283.474)" fill="#b6b7b7"/>
    <path id="Path_4255" data-name="Path 4255" d="M308.085,301.616c0-.039,0-.272,0,0Z" transform="translate(-250.191 -284.533)" fill="#b6b7b7"/>
    <path id="Path_4256" data-name="Path 4256" d="M57.9,183.725c-.078-4.084-.725-5.248-5.671-5.985a4.039,4.039,0,0,1-4.638,0c-4.892.729-5.578,1.875-5.668,5.852-.007.325-.011.342-.012.3,0,.071,0,.2,0,.429,0,0,1.178,1.959,8,1.959s8-1.959,8-1.959c0-.146,0-.248,0-.317A2.17,2.17,0,0,1,57.9,183.725Z" transform="translate(-0.012 -166.924)" fill="#b6b7b7"/>
  </g>
</svg>
